<svg width="955" height="224" viewBox="0 0 955 224" fill="none" xmlns="http://www.w3.org/2000/svg">
<path d="M954.527 34.7954C951.013 36.244 944.774 28.8267 938.258 21.4231C931.775 14.0048 925.094 6.73529 921.203 8.6065C917.288 10.4431 920.362 19.5208 923.574 28.4495C926.792 37.3997 930.181 46.2372 926.797 48.053C925.102 48.9502 922.513 47.6555 919.43 45.272C916.364 42.9117 912.814 39.4643 909.251 36.0349C902.123 29.1861 894.768 22.3593 891.136 24.4979C887.484 26.6331 891.283 35.3884 895.25 44.1115C899.206 52.8427 903.272 61.461 899.972 63.4942C896.689 65.5504 889.16 59.0286 881.547 52.5838C873.944 46.1407 866.237 39.7712 862.747 42.0255C855.825 46.6148 880.27 76.1963 873.839 80.5855C867.411 85.0157 842.367 55.7885 835.688 60.5005C829.018 65.2142 854.458 94.1439 848.048 98.76C841.627 103.384 815.975 74.6313 809.477 79.3539C802.999 84.07 828.719 112.784 822.23 117.508C815.722 122.229 790.083 93.4581 783.66 98.0922C777.233 102.695 802.658 131.653 795.98 136.355C792.658 138.699 784.696 132.57 776.814 126.393C768.921 120.225 761.091 114.038 757.857 116.224C754.619 118.43 759.144 126.914 763.562 135.43C767.992 143.938 772.376 152.539 768.886 154.793C765.406 157.049 757.719 150.683 750.109 144.219C742.478 137.761 734.969 131.242 731.694 133.31C728.386 135.332 732.458 143.971 736.416 152.693C740.376 161.394 744.184 170.161 740.551 172.3C736.901 174.425 729.564 167.612 722.423 160.781C715.26 153.957 708.225 146.981 704.829 148.805C701.461 150.644 704.865 159.454 708.123 168.411C711.385 177.338 714.504 186.393 710.607 188.243C708.673 189.17 706.019 187.844 703.047 185.348C700.056 182.848 696.746 179.178 693.479 175.505C686.927 168.135 680.6 160.754 677.077 162.252C673.558 163.73 676.155 172.868 678.488 182.012C680.844 191.139 682.966 200.389 678.89 201.975C674.767 203.482 668.835 195.691 663.14 187.819C657.425 179.944 651.932 171.903 648.326 173.113C644.704 174.3 646.207 183.494 647.468 192.851C648.102 197.514 648.679 202.209 648.56 205.871C648.435 209.512 647.581 212.135 645.443 212.713C641.152 213.897 636.182 205.52 631.496 197.09C629.151 192.885 626.858 188.669 624.694 185.6C623.607 184.065 622.57 182.833 621.563 182.021C620.548 181.188 619.58 180.8 618.624 180.991C614.888 181.722 615.231 191.165 615.26 200.493C615.315 209.846 615.097 219.254 610.658 219.997C606.202 220.605 602.369 211.813 598.823 203C595.262 194.214 591.962 185.21 588.156 185.635C584.349 186.069 583.446 195.269 582.256 204.602C581.665 209.248 581.021 213.907 579.949 217.447C578.886 220.998 577.375 223.367 575.14 223.442C570.652 223.588 567.968 214.536 565.599 205.366C563.181 196.188 561.048 187.007 557.187 187.037C553.326 187.016 551.248 196.086 548.894 205.23C547.729 209.789 546.513 214.349 545.008 217.754C543.504 221.149 541.733 223.322 539.522 223.197C535.057 222.911 533.499 213.687 532.219 204.317C530.914 194.974 529.85 185.651 525.973 185.303C522.125 184.909 519.027 193.713 515.605 202.573C512.23 211.401 508.553 220.268 504.155 219.526C499.741 218.822 499.293 209.453 499.11 200.078C498.912 190.67 498.97 181.306 495.151 180.562C494.189 180.377 493.219 180.77 492.224 181.604C491.232 182.419 490.219 183.656 489.184 185.203C487.116 188.279 484.973 192.508 482.779 196.739C480.585 200.97 478.343 205.182 476.119 208.221C473.887 211.248 471.629 213.125 469.512 212.57C465.247 211.466 465.823 202.099 466.625 192.781C467.401 183.489 468.409 174.094 464.643 173.035C462.747 172.497 460.577 174.267 458.183 177.175C455.809 180.087 453.265 184.106 450.668 188.146C445.495 196.21 440.14 204.212 435.983 202.893C431.856 201.518 433.32 192.181 434.928 182.95C436.535 173.668 438.292 164.574 434.609 163.153C430.92 161.762 425.238 169.546 419.394 177.261C413.557 184.998 407.616 192.576 403.608 190.978C399.603 189.36 401.753 180.221 404.076 171.082C406.388 161.951 408.823 152.872 405.192 151.318C401.552 149.762 395.347 157.102 388.984 164.475C382.647 171.812 376.13 179.139 372.28 177.324C368.436 175.48 371.207 166.448 374.098 157.487C375.546 152.997 379.166 131.857 346.52 149.973C242.013 207.969 71.3543 119.091 0.979185 1.17496" stroke="#079AE0" stroke-opacity="0.8" stroke-miterlimit="10"/>
</svg>
