<svg width="517" height="181" viewBox="0 0 517 181" fill="none" xmlns="http://www.w3.org/2000/svg">
<path d="M502.931 71.0348C504.431 76.0348 521.066 94.8068 514.648 99.3263C511.455 101.579 503.803 95.6881 496.227 89.7517C488.64 83.8232 481.114 77.8759 478.005 79.9773C474.893 82.0976 479.243 90.2518 483.49 98.4372C487.747 106.615 491.961 114.882 488.606 117.049C485.262 119.217 477.873 113.098 470.559 106.885C463.224 100.678 456.007 94.4125 452.859 96.3999C449.679 98.343 453.594 106.647 457.397 115.03C461.204 123.393 464.863 131.82 461.372 133.875C457.864 135.918 450.812 129.369 443.948 122.804C437.063 116.244 430.301 109.54 427.038 111.293C423.8 113.061 427.072 121.528 430.203 130.137C433.339 138.718 436.337 147.421 432.591 149.199C430.732 150.09 428.181 148.816 425.325 146.416C422.449 144.014 419.269 140.486 416.128 136.956C409.83 129.873 403.749 122.778 400.363 124.218C396.98 125.638 399.477 134.422 401.719 143.21C403.984 151.983 406.023 160.874 402.106 162.398C398.143 163.847 392.441 156.358 386.967 148.792C381.475 141.222 376.194 133.494 372.729 134.657C369.248 135.798 370.692 144.635 371.904 153.628C372.513 158.11 373.068 162.622 372.954 166.143C372.834 169.642 372.013 172.164 369.958 172.719C365.833 173.857 361.057 165.806 356.552 157.703C354.298 153.661 352.095 149.608 350.015 146.659C348.97 145.184 347.973 143.999 347.005 143.219C346.03 142.419 345.099 142.045 344.18 142.229C340.589 142.932 340.92 152.008 340.947 160.974C341 169.964 340.79 179.006 336.524 179.72C332.241 180.304 328.556 171.854 325.148 163.383C324.161 160.947 323.195 158.494 322.232 156.246C318.951 148.587 311.225 148.959 303.564 152.236C201.432 195.925 31.9901 109.743 -33.1777 0.551457" stroke="#079AE0" stroke-opacity="0.8" stroke-miterlimit="10"/>
</svg>
