<svg width="850" height="224" viewBox="0 0 850 224" fill="none" xmlns="http://www.w3.org/2000/svg">
<path d="M839.5 72.2803C834 77.7803 854.458 93.9896 848.048 98.6057C841.627 103.23 815.975 74.477 809.477 79.1996C802.999 83.9157 828.719 112.63 822.23 117.354C815.722 122.075 790.083 93.3038 783.66 97.9379C777.233 102.541 802.658 131.498 795.98 136.201C792.658 138.544 784.696 132.415 776.814 126.239C768.921 120.071 761.091 113.883 757.857 116.07C754.619 118.276 759.144 126.759 763.562 135.275C767.992 143.783 772.376 152.385 768.886 154.639C765.406 156.895 757.719 150.529 750.109 144.064C742.478 137.606 734.969 131.088 731.694 133.156C728.386 135.177 732.458 143.817 736.416 152.538C740.376 161.24 744.184 170.007 740.551 172.146C736.901 174.271 729.564 167.457 722.423 160.627C715.26 153.802 708.225 146.827 704.829 148.651C701.461 150.49 704.865 159.299 708.123 168.256C711.385 177.184 714.504 186.239 710.607 188.088C708.673 189.016 706.019 187.69 703.047 185.193C700.056 182.693 696.746 179.024 693.479 175.35C686.927 167.981 680.6 160.6 677.077 162.098C673.558 163.576 676.155 172.714 678.488 181.858C680.844 190.985 682.966 200.235 678.89 201.821C674.767 203.328 668.835 195.537 663.14 187.665C657.425 179.79 651.932 171.749 648.326 172.959C644.704 174.146 646.207 183.34 647.468 192.696C648.102 197.36 648.679 202.054 648.56 205.717C648.435 209.358 647.581 211.981 645.443 212.559C641.152 213.743 636.182 205.366 631.496 196.936C629.151 192.731 626.858 188.514 624.694 185.446C623.607 183.911 622.57 182.678 621.563 181.867C620.548 181.034 619.58 180.645 618.624 180.837C614.888 181.568 615.231 191.011 615.26 200.339C615.315 209.692 615.097 219.1 610.658 219.843C606.202 220.451 602.369 211.659 598.823 202.846C595.262 194.06 591.962 185.055 588.156 185.48C584.349 185.915 583.446 195.114 582.256 204.447C581.665 209.094 581.021 213.752 579.949 217.292C578.886 220.844 577.375 223.213 575.14 223.288C570.652 223.434 567.968 214.382 565.599 205.212C563.181 196.033 561.048 186.852 557.187 186.883C553.326 186.862 551.248 195.931 548.894 205.075C547.729 209.634 546.513 214.195 545.008 217.6C543.504 220.995 541.733 223.167 539.522 223.043C535.057 222.757 533.499 213.532 532.219 204.163C530.914 194.819 529.85 185.497 525.973 185.149C522.125 184.755 519.027 193.559 515.605 202.419C512.23 211.246 508.553 220.114 504.155 219.372C499.741 218.668 499.293 209.299 499.11 199.924C498.912 190.516 498.97 181.152 495.151 180.408C494.189 180.223 493.219 180.615 492.224 181.45C491.232 182.264 490.219 183.501 489.184 185.049C487.116 188.125 484.973 192.354 482.779 196.585C480.585 200.815 478.343 205.028 476.119 208.067C473.887 211.094 471.629 212.97 469.512 212.416C465.247 211.311 465.823 201.945 466.625 192.626C467.401 183.334 468.409 173.94 464.643 172.88C462.747 172.343 460.577 174.113 458.183 177.021C455.809 179.933 453.265 183.952 450.668 187.992C445.495 196.055 440.14 204.058 435.983 202.738C431.856 201.363 433.32 192.027 434.928 182.796C436.535 173.514 438.292 164.42 434.609 162.999C430.92 161.607 425.238 169.391 419.394 177.107C413.557 184.844 407.616 192.421 403.608 190.823C399.603 189.206 401.753 180.067 404.076 170.928C406.388 161.797 408.823 152.717 405.192 151.163C401.552 149.608 395.347 156.947 388.984 164.321C382.647 171.658 376.13 178.985 372.28 177.17C368.436 175.326 371.207 166.294 374.098 157.333C375.546 152.842 379.166 131.702 346.52 149.819C242.013 207.815 71.3543 118.937 0.979185 1.02066" stroke="#079AE0" stroke-opacity="0.8" stroke-miterlimit="10"/>
</svg>
