<svg width="783" height="218" viewBox="0 0 783 218" fill="none" xmlns="http://www.w3.org/2000/svg">
<path d="M769 105.484C770.5 110.484 787.136 129.256 780.717 133.776C777.524 136.029 769.872 130.138 762.296 124.201C754.709 118.273 747.183 112.325 744.075 114.427C740.962 116.547 745.312 124.701 749.559 132.887C753.817 141.064 758.03 149.332 754.676 151.498C751.331 153.667 743.942 147.548 736.628 141.334C729.293 135.127 722.076 128.862 718.928 130.849C715.749 132.793 719.663 141.097 723.466 149.479C727.273 157.843 730.933 166.269 727.441 168.325C723.933 170.368 716.881 163.819 710.017 157.253C703.133 150.694 696.371 143.99 693.107 145.743C689.87 147.51 693.141 155.978 696.272 164.587C699.408 173.167 702.406 181.87 698.66 183.648C696.801 184.54 694.25 183.265 691.394 180.866C688.519 178.463 685.338 174.936 682.197 171.405C675.899 164.322 669.818 157.227 666.433 158.667C663.05 160.088 665.546 168.871 667.789 177.66C670.053 186.433 672.092 195.323 668.175 196.848C664.213 198.296 658.511 190.808 653.037 183.242C647.544 175.672 642.264 167.944 638.798 169.107C635.317 170.247 636.761 179.085 637.974 188.078C638.583 192.56 639.138 197.072 639.023 200.592C638.903 204.092 638.082 206.613 636.027 207.169C631.903 208.307 627.126 200.255 622.621 192.152C620.368 188.111 618.164 184.058 616.084 181.109C615.04 179.633 614.043 178.449 613.074 177.669C612.099 176.868 611.169 176.495 610.25 176.679C606.658 177.381 606.989 186.458 607.017 195.423C607.069 204.413 606.86 213.456 602.594 214.17C598.31 214.754 594.626 206.304 591.218 197.833C587.795 189.388 584.623 180.733 580.965 181.142C577.305 181.559 576.438 190.402 575.294 199.372C574.726 203.838 574.107 208.316 573.077 211.718C572.055 215.132 570.603 217.409 568.455 217.481C564.14 217.621 561.561 208.921 559.284 200.107C556.96 191.285 554.909 182.461 551.199 182.489C547.487 182.469 545.49 191.187 543.228 199.976C542.108 204.358 540.939 208.741 539.493 212.014C538.048 215.277 536.345 217.365 534.22 217.246C529.928 216.97 528.43 208.104 527.2 199.099C525.947 190.118 524.923 181.158 521.197 180.823C517.498 180.444 514.521 188.906 511.232 197.422C507.988 205.907 504.454 214.43 500.227 213.717C495.984 213.041 495.553 204.035 495.377 195.024C495.187 185.982 495.243 176.982 491.572 176.266C490.647 176.089 489.715 176.466 488.759 177.268C487.806 178.051 486.832 179.24 485.837 180.727C483.849 183.683 481.789 187.748 479.68 191.815C477.571 195.881 475.417 199.93 473.279 202.851C471.134 205.761 468.963 207.564 466.929 207.031C462.83 205.97 463.384 196.967 464.154 188.01C464.9 179.079 465.868 170.049 462.249 169.031C460.426 168.515 458.341 170.216 456.04 173.011C453.758 175.81 451.313 179.672 448.816 183.555C443.845 191.306 438.698 198.997 434.702 197.729C430.735 196.408 432.142 187.434 433.688 178.561C435.233 169.64 436.922 160.899 433.381 159.533C429.836 158.196 424.374 165.678 418.758 173.094C413.147 180.53 407.437 187.813 403.584 186.277C399.735 184.722 401.802 175.939 404.035 167.155C406.257 158.378 408.597 149.651 405.107 148.158C401.609 146.663 395.644 153.717 389.528 160.804C383.438 167.856 377.173 174.898 373.474 173.154C369.779 171.382 372.442 162.7 375.221 154.087C376.612 149.771 380.092 129.452 348.714 146.866C248.266 202.609 68.8766 113.9 1.23471 0.563712" stroke="#079AE0" stroke-opacity="0.8" stroke-miterlimit="10"/>
</svg>
